<svg xmlns="http://www.w3.org/2000/svg" viewBox="0 0 64 64" fill="none" aria-hidden="true"><g stroke-linecap="round" stroke-linejoin="round"><path d="M23 8h18v10c0 9-4 15-9 18-5-3-9-9-9-18z" stroke="currentColor" stroke-width="4"/><path d="M23 12H13v5c0 7 5 11 11 11M41 12h10v5c0 7-5 11-11 11" stroke="currentColor" stroke-width="4"/><path d="M32 36v8M25 45h14" stroke="currentColor" stroke-width="4"/><path d="M11 51h42M16 51v7M32 51v7M48 51v7" stroke="currentColor" stroke-width="4"/><rect x="11" y="56" width="10" height="4" rx="1" stroke="currentColor" stroke-width="2.5"/><rect x="27" y="56" width="10" height="4" rx="1" stroke="currentColor" stroke-width="2.5"/><rect x="43" y="56" width="10" height="4" rx="1" stroke="currentColor" stroke-width="2.5"/></g></svg>
